<mxfile host="app.diagrams.net" modified="2024-06-18T03:18:48.745Z" agent="Mozilla/5.0 (Macintosh; Intel Mac OS X 10_15_7) AppleWebKit/537.36 (KHTML, like Gecko) Chrome/126.0.0.0 Safari/537.36" etag="aG1BMHwHf45-Bo6JOXi_" version="24.5.5" type="github">
  <diagram name="第 1 页" id="lPQbboHzNa1yriG8wwVT">
    <mxGraphModel dx="984" dy="1828" grid="1" gridSize="10" guides="1" tooltips="1" connect="1" arrows="1" fold="1" page="1" pageScale="1" pageWidth="827" pageHeight="1169" math="0" shadow="0">
      <root>
        <mxCell id="0" />
        <mxCell id="1" parent="0" />
        <mxCell id="MBKyh0wlt0BaDbv8-dWQ-1" value="" style="rounded=0;whiteSpace=wrap;html=1;" parent="1" vertex="1">
          <mxGeometry x="414" y="70" width="120" height="60" as="geometry" />
        </mxCell>
        <mxCell id="qig4Emd4RiLfjyeFZdFi-1" style="edgeStyle=orthogonalEdgeStyle;rounded=0;orthogonalLoop=1;jettySize=auto;html=1;exitX=0.5;exitY=1;exitDx=0;exitDy=0;entryX=0.5;entryY=1;entryDx=0;entryDy=0;" edge="1" parent="1" source="-BAtd-ri_zrnI_QIJBw4-1" target="MBKyh0wlt0BaDbv8-dWQ-1">
          <mxGeometry relative="1" as="geometry" />
        </mxCell>
        <mxCell id="-BAtd-ri_zrnI_QIJBw4-1" value="" style="rounded=1;whiteSpace=wrap;html=1;" parent="1" vertex="1">
          <mxGeometry x="90" y="60" width="120" height="60" as="geometry" />
        </mxCell>
        <mxCell id="qig4Emd4RiLfjyeFZdFi-2" value="" style="shape=process;whiteSpace=wrap;html=1;backgroundOutline=1;" vertex="1" parent="1">
          <mxGeometry x="110" y="-10" width="120" height="60" as="geometry" />
        </mxCell>
      </root>
    </mxGraphModel>
  </diagram>
</mxfile>
